<?xml version="1.0" standalone="no"?>
<!DOCTYPE svg PUBLIC "-//W3C//DTD SVG 20010904//EN"
 "http://www.w3.org/TR/2001/REC-SVG-20010904/DTD/svg10.dtd">
<svg version="1.0" xmlns="http://www.w3.org/2000/svg"
 width="502.000000pt" height="502.000000pt" viewBox="0 0 502.000000 502.000000"
 preserveAspectRatio="xMidYMid meet">
<metadata>
Created by potrace 1.14, written by Peter Selinger 2001-2017
</metadata>
<g transform="translate(0.000000,502.000000) scale(0.100000,-0.100000)"
fill="#000000" stroke="none">
<path d="M2140 5010 c-229 -25 -377 -56 -559 -117 -93 -31 -281 -112 -302
-130 -8 -7 -20 -13 -25 -13 -24 0 -286 -172 -369 -241 -139 -116 -257 -238
-377 -387 -123 -153 -284 -452 -353 -657 -29 -86 -83 -307 -90 -370 -3 -32 -9
-64 -12 -69 -10 -15 -12 -494 -3 -561 5 -33 11 -84 15 -113 10 -84 70 -309
110 -417 103 -274 252 -523 440 -734 61 -68 157 -163 193 -191 17 -14 32 -29
32 -35 0 -5 25 -41 56 -80 221 -279 490 -499 794 -651 71 -35 135 -64 142 -64
8 0 18 -4 24 -9 25 -26 355 -119 479 -137 28 -3 59 -8 70 -10 11 -2 76 -9 145
-15 449 -40 975 93 1375 349 39 24 72 48 73 53 2 5 8 9 14 9 9 0 101 68 168
124 85 72 281 280 347 367 157 210 276 435 349 659 31 95 80 300 89 365 3 28
10 79 15 115 24 190 12 468 -30 690 -47 250 -170 564 -293 752 -35 53 -42 70
-34 85 6 10 66 87 134 172 68 84 123 162 123 172 0 32 -37 22 -88 -23 -25 -24
-52 -47 -58 -53 -220 -197 -197 -183 -225 -143 -13 18 -27 35 -31 36 -4 2 -8
8 -8 14 0 11 -30 52 -115 158 -68 86 -495 516 -570 576 -27 21 -52 41 -55 44
-36 36 -237 167 -345 225 -201 107 -516 211 -695 231 -30 3 -75 10 -99 15 -59
13 -357 19 -451 9z"/>
</g>
</svg>
